<svg xmlns="http://www.w3.org/2000/svg" xmlns:xlink="http://www.w3.org/1999/xlink" width="78" height="20" viewBox="0 0 78 20">
    <defs>
        <path id="prefix__a" d="M0 0.666L75.603 0.666 75.603 19.333 0 19.333z"/>
        <path id="prefix__c" d="M0.174 0.666L26.27 0.666 26.27 19.333 0.174 19.333z"/>
    </defs>
    <g fill="none" fill-rule="evenodd">
        <path fill="#FFF" d="M2.4 17.934L75.203 17.934 75.203 2.067 2.4 2.067z"/>
        <g transform="translate(1 .001)">
            <mask id="prefix__b" fill="#fff">
                <use xlink:href="#prefix__a"/>
            </mask>
            <path fill="#00C73C" d="M74.39.666H1.213C.546.666 0 1.212 0 1.879v16.24c0 .668.546 1.214 1.213 1.214H74.39c.667 0 1.213-.546 1.213-1.213V1.88c0-.668-.546-1.214-1.213-1.214zM1.4 17.933h72.803V2.066H1.4v15.867z" mask="url(#prefix__b)"/>
            <g transform="translate(49.333)">
                <mask id="prefix__d" fill="#fff">
                    <use xlink:href="#prefix__c"/>
                </mask>
                <path fill="#00C73C" d="M25.057.666H.174v18.667h24.883c.667 0 1.213-.546 1.213-1.213V1.88c0-.668-.546-1.214-1.213-1.214" mask="url(#prefix__d)"/>
            </g>
            <path fill="#00C73C" d="M11.432 6.419L11.432 10.06 8.937 6.419 6.242 6.419 6.242 13.638 8.928 13.638 8.928 9.994 11.422 13.638 14.118 13.638 14.118 6.419zM41.634 9.466c-.156.128-.458.19-.708.19h-.577V8.234h.565c.272 0 .58.066.73.194.15.13.22.306.22.53 0 .214-.073.384-.23.508zm1.32 1.472c.955-.267 1.57-.956 1.57-2.062 0-1.86-1.474-2.457-3.42-2.457h-3.356v7.22h2.687v-2.256l1.604 2.255h3.088l-2.173-2.7zM31.199 6.419L36.646 6.419 36.646 8.298 33.859 8.298 33.859 9.148 36.427 9.148 36.427 10.923 33.859 10.923 33.859 11.758 36.731 11.758 36.731 13.638 31.199 13.638zM18.386 11.026l.631-2.382h.075l.632 2.382h-1.338zm2.2-4.607h-3.063l-2.828 7.22h2.989l.26-.945h2.22l.263.944h2.988l-2.828-7.22zM27.692 6.419L26.367 10.77 26.293 10.77 24.969 6.419 22.039 6.419 25.061 13.638 27.599 13.638 30.623 6.419z"/>
            <path fill="#FFF" d="M55.22 6.643V9.59h1.561c1.144 0 1.716-.473 1.716-1.419v-.197c0-.455-.138-.79-.412-1.007-.275-.216-.67-.324-1.182-.324H55.22zm-1.089-.945h2.832c.446 0 .834.056 1.163.17.33.114.602.271.817.472.216.202.377.442.484.72.106.28.158.58.158.902v.232c0 .322-.056.624-.17.907-.113.282-.28.53-.498.742-.22.213-.492.381-.818.506-.325.125-.704.187-1.135.187H55.22v3.09H54.13V5.698zM64.115 10.888H62.61c-.418 0-.716.08-.896.242-.18.16-.27.384-.27.67v.154c0 .294.103.506.308.638.206.132.451.198.737.198.264 0 .493-.031.687-.094.194-.062.372-.155.534-.28.146-.11.251-.236.313-.38.062-.142.093-.327.093-.554v-.594zm-1.737 2.826c-.609 0-1.09-.15-1.446-.451-.355-.3-.533-.715-.533-1.243v-.296c0-.514.172-.932.517-1.254.344-.322.901-.484 1.671-.484h1.528v-.352c0-.403-.097-.702-.29-.896-.196-.194-.512-.292-.952-.292-.352 0-.658.056-.918.166-.26.109-.53.256-.808.44l-.528-.792c.293-.206.622-.384.99-.534.366-.15.791-.225 1.275-.225.337 0 .645.042.924.126.278.085.518.21.72.374.201.165.359.367.473.605.114.238.17.508.17.808v4.212h-1.022V12.9h-.012c-.058.11-.137.21-.236.302-.099.092-.207.17-.324.237-.162.088-.336.156-.522.203-.188.048-.413.072-.677.072zM68.888 12.416L70.471 7.611 71.593 7.611 68.47 16.111 67.503 15.77 68.283 13.713 66.095 7.611 67.249 7.611 68.844 12.416z"/>
        </g>
    </g>
</svg>
