<svg xmlns="http://www.w3.org/2000/svg" xmlns:xlink="http://www.w3.org/1999/xlink" width="64" height="15" viewBox="0 0 64 15">
    <defs>
        <path id="prefix__a" d="M0 0.179L11.043 0.179 11.043 14.371 0 14.371z"/>
        <path id="prefix__c" d="M0.268 0.059L12.906 0.059 12.906 14.491 0.268 14.491z"/>
        <path id="prefix__e" d="M0.068 0.059L14.898 0.059 14.898 14.491 0.068 14.491z"/>
    </defs>
    <g fill="none" fill-rule="evenodd">
        <path fill="#FFF" d="M0 0H375V2585H0z" transform="translate(-104 -1951)"/>
        <g>
            <text fill="#343A40" font-family="AppleSDGothicNeo-Regular, Apple SD Gothic Neo" font-size="16" letter-spacing="-.2" transform="translate(-104 -1951) translate(16 1685) translate(0 262)">
                <tspan x="36" y="14">페이코</tspan>
            </text>
            <g>
                <g transform="translate(-104 -1951) translate(16 1685) translate(88 266) translate(0 .225)">
                    <mask id="prefix__b" fill="#fff">
                        <use xlink:href="#prefix__a"/>
                    </mask>
                    <path fill="#E6241F" d="M5.501 7.215c1.535 0 2.432-.917 2.432-2.113v-.04c0-1.375-.957-2.113-2.491-2.113H3.07v4.266H5.5zM0 1.713C0 .857.678.18 1.535.18H5.7c3.329 0 5.342 1.973 5.342 4.823v.04c0 3.23-2.512 4.904-5.641 4.904H3.07v2.89c0 .857-.678 1.535-1.535 1.535-.857 0-1.535-.678-1.535-1.535V1.713z" mask="url(#prefix__b)"/>
                </g>
                <path fill="#E6241F" d="M19.184 8.636L17.251 4.03l-1.934 4.605h3.867zm-8.63 3.867L15.417 1.52c.339-.757.957-1.216 1.794-1.216h.18c.837 0 1.434.459 1.774 1.216l4.863 10.983c.1.22.16.418.16.618 0 .817-.638 1.475-1.456 1.475-.717 0-1.196-.419-1.475-1.056l-.937-2.193h-6.139l-.977 2.292c-.259.598-.777.957-1.415.957-.797 0-1.415-.638-1.415-1.436 0-.219.08-.438.18-.657zM27.434 9.094l-4.505-6.119c-.219-.299-.378-.658-.378-1.096 0-.817.677-1.475 1.534-1.475.698 0 1.136.378 1.515.936l3.389 4.884L32.437 1.3c.379-.558.837-.916 1.475-.916.937 0 1.495.657 1.495 1.495 0 .418-.2.797-.399 1.076l-4.505 6.08v4.026c0 .857-.677 1.535-1.534 1.535s-1.535-.678-1.535-1.535V9.094z" transform="translate(-104 -1951) translate(16 1685) translate(88 266)"/>
                <g transform="translate(-104 -1951) translate(16 1685) translate(88 266) translate(35.232 .225)">
                    <mask id="prefix__d" fill="#fff">
                        <use xlink:href="#prefix__c"/>
                    </mask>
                    <path fill="#E6241F" d="M.268 7.315v-.04c0-3.967 2.99-7.216 7.276-7.216 2.093 0 3.508.558 4.664 1.415.319.24.598.678.598 1.216 0 .838-.678 1.495-1.515 1.495-.418 0-.697-.16-.917-.299-.857-.637-1.754-.996-2.85-.996-2.352 0-4.047 1.953-4.047 4.345v.04c0 2.392 1.655 4.385 4.047 4.385 1.295 0 2.153-.399 3.03-1.096.239-.2.558-.339.917-.339.777 0 1.435.638 1.435 1.415 0 .479-.24.857-.518 1.096-1.256 1.097-2.731 1.755-4.964 1.755-4.106 0-7.156-3.17-7.156-7.176" mask="url(#prefix__d)"/>
                </g>
                <g transform="translate(-104 -1951) translate(16 1685) translate(88 266) translate(48.87 .225)">
                    <mask id="prefix__f" fill="#fff">
                        <use xlink:href="#prefix__e"/>
                    </mask>
                    <path fill="#E6241F" d="M11.689 7.315v-.04c0-2.392-1.754-4.385-4.226-4.385S3.277 4.843 3.277 7.235v.04c0 2.392 1.754 4.385 4.226 4.385 2.471 0 4.186-1.953 4.186-4.345m-11.621 0v-.04C.068 3.308 3.197.059 7.503.059c4.305 0 7.395 3.21 7.395 7.176v.04c0 3.967-3.13 7.216-7.435 7.216-4.306 0-7.395-3.21-7.395-7.176" mask="url(#prefix__f)"/>
                </g>
            </g>
        </g>
    </g>
</svg>
