<svg xmlns="http://www.w3.org/2000/svg" width="12" height="12" viewBox="0 0 12 12">
    <g fill="none" fill-rule="evenodd">
        <path fill="#51ABF3" d="M6.874 11.572c-.482-.271-1.26-.275-1.748 0l-.464.26c-.483.272-1.032.075-1.227-.44l-.2-.53c-.195-.514-.786-1.017-1.335-1.125l-.52-.102C.838 9.528.542 9.02.72 8.498l.182-.536C1.079 7.44.945 6.67.593 6.23L.26 5.813c-.348-.435-.252-1.017.227-1.31l.455-.276c.473-.288.865-.968.874-1.52l.01-.567c.009-.551.452-.928 1.004-.84l.523.085c.546.088 1.277-.178 1.644-.606l.347-.406c.362-.422.945-.428 1.312 0l.347.406c.363.422 1.091.695 1.644.606L9.17 1.3c.546-.088.995.288 1.005.84l.01.566c.009.552.394 1.228.873 1.52l.455.277c.473.288.58.869.227 1.309l-.333.417c-.348.435-.486 1.21-.309 1.732l.183.536c.177.521-.112 1.029-.66 1.137l-.521.102c-.542.107-1.14.61-1.335 1.126l-.2.529c-.195.515-.738.716-1.227.44l-.464-.26z"/>
        <path fill="#FFF" d="M5.572 4.66c0 .86-.531 1.434-1.32 1.434-.785 0-1.32-.574-1.32-1.434 0-.851.53-1.426 1.32-1.426.789 0 1.32.57 1.32 1.426zm-1.32.684c.273 0 .45-.262.45-.684 0-.43-.169-.683-.45-.683-.277 0-.45.261-.45.683 0 .422.177.684.45.684zM4.654 9H3.553l2.129-2.953 1.695-2.684h1.098L6.31 6.34 4.654 9zm4.414-1.3c0 .855-.53 1.429-1.32 1.429-.785 0-1.316-.574-1.316-1.43 0-.855.53-1.43 1.316-1.43.79 0 1.32.57 1.32 1.43zm-1.32.679c.273 0 .45-.262.45-.684 0-.43-.169-.68-.45-.68-.277 0-.45.258-.45.68 0 .422.177.684.45.684z"/>
    </g>
</svg>
